<svg xmlns="http://www.w3.org/2000/svg" xmlns:xlink="http://www.w3.org/1999/xlink" width="1080" zoomAndPan="magnify" viewBox="0 0 810 809.999993" height="1080" preserveAspectRatio="xMidYMid meet" version="1.0"><defs><clipPath id="e8de651916"><path d="M 34 488 L 144 488 L 144 708.507812 L 34 708.507812 Z M 34 488 " clip-rule="nonzero"/></clipPath><clipPath id="22124a7008"><path d="M 334 101.757812 L 532 101.757812 L 532 171 L 334 171 Z M 334 101.757812 " clip-rule="nonzero"/></clipPath></defs><path fill="#000000" d="M 777.039062 471.65625 L 773.027344 471.65625 L 773.027344 445.207031 L 737.441406 445.207031 L 737.441406 404.332031 L 712.476562 404.332031 L 712.476562 418.757812 L 702.160156 418.757812 L 702.160156 445.207031 L 686.625 445.207031 L 686.625 273.296875 L 648.417969 273.296875 L 648.417969 419.960938 L 636.957031 419.960938 L 636.957031 401.402344 L 610.980469 401.402344 L 610.980469 446.707031 L 603.339844 446.707031 L 603.339844 373.675781 L 586.53125 373.675781 L 586.53125 323.785156 L 553.417969 323.785156 L 553.417969 415.152344 L 511.90625 415.152344 L 511.90625 344.824219 L 491.53125 344.824219 L 491.53125 273.296875 L 453.324219 273.296875 L 453.324219 405.234375 L 438.9375 405.234375 L 438.9375 440.132812 C 441.441406 441.285156 443.875 442.597656 446.222656 444.0625 L 494.269531 474.074219 C 503.03125 475.398438 536.484375 480.898438 568.226562 492.109375 L 809.207031 492.109375 L 809.207031 485.648438 L 777.039062 485.648438 Z M 777.039062 471.65625 " fill-opacity="1" fill-rule="nonzero"/><path fill="#000000" d="M 394.625 433.023438 L 415.058594 434.171875 C 417.6875 434.320312 420.304688 434.640625 422.890625 435.101562 L 422.890625 373.675781 L 391.4375 373.675781 L 391.4375 429.554688 C 392.679688 430.53125 393.765625 431.695312 394.625 433.023438 Z M 394.625 433.023438 " fill-opacity="1" fill-rule="nonzero"/><path fill="#000000" d="M 187.726562 485.648438 L 159.34375 485.648438 L 159.34375 492.109375 L 184.230469 492.109375 L 184.375 491.742188 C 185.238281 489.542969 186.375 487.503906 187.726562 485.648438 Z M 187.726562 485.648438 " fill-opacity="1" fill-rule="nonzero"/><path fill="#000000" d="M 328.253906 512.109375 L 312.136719 512.109375 L 310.835938 521.136719 L 326.953125 521.136719 C 330.769531 521.136719 333.457031 519.792969 333.457031 515.890625 C 333.457031 513.074219 331.316406 512.109375 328.253906 512.109375 Z M 328.253906 512.109375 " fill-opacity="1" fill-rule="nonzero"/><path fill="#000000" d="M 363.214844 511.480469 C 354.105469 511.480469 349.363281 515.386719 348.566406 520.925781 C 347.808594 526.46875 351.460938 530.375 360.570312 530.375 C 369.675781 530.375 374.421875 526.46875 375.175781 520.925781 C 375.972656 515.386719 372.320312 511.480469 363.214844 511.480469 Z M 363.214844 511.480469 " fill-opacity="1" fill-rule="nonzero"/><path fill="#000000" d="M 490.828125 483.460938 L 441.042969 452.363281 C 433.042969 447.367188 423.917969 444.472656 414.507812 443.941406 L 386.757812 442.382812 C 386.980469 441.859375 387.101562 441.289062 387.101562 440.6875 C 387.101562 438.28125 385.136719 436.316406 382.734375 436.316406 L 380.902344 436.316406 L 379.851562 428.886719 C 379.472656 426.226562 377.195312 424.25 374.507812 424.25 L 359.019531 424.25 C 356.335938 424.25 354.058594 426.226562 353.679688 428.886719 L 352.625 436.316406 L 350.796875 436.316406 C 348.589844 436.316406 346.769531 437.984375 346.484375 440.117188 L 328.96875 439.132812 C 318.472656 438.503906 307.996094 440.707031 298.636719 445.503906 L 256.292969 475.296875 C 254.128906 476.816406 251.597656 477.71875 248.960938 477.90625 L 207.871094 484.269531 C 201.398438 485.003906 195.863281 489.257812 193.480469 495.320312 L 190.308594 503.386719 C 188.988281 506.757812 188.734375 510.453125 189.585938 513.972656 L 196.28125 541.605469 C 190.832031 545.859375 192.175781 557.726562 200.304688 558.203125 L 200.378906 558.507812 L 225.765625 558.507812 L 225.765625 562.378906 L 233.746094 562.378906 L 233.746094 558.386719 C 233.746094 540.765625 248.074219 526.433594 265.683594 526.433594 C 283.292969 526.433594 297.621094 540.765625 297.621094 558.386719 L 297.621094 562.378906 L 305.605469 562.378906 L 305.605469 558.507812 L 497.199219 558.507812 L 497.199219 562.378906 L 505.183594 562.378906 L 505.183594 558.386719 C 505.183594 540.765625 519.511719 526.433594 537.121094 526.433594 C 554.730469 526.433594 569.058594 540.765625 569.058594 558.386719 L 569.058594 562.378906 L 577.039062 562.378906 L 577.039062 558.507812 L 607.140625 558.507812 L 607.214844 557.679688 C 613.242188 555.230469 613.730469 545.179688 608.679688 541.484375 L 609.265625 535.054688 L 601.089844 518.257812 C 562.953125 493.421875 490.828125 483.460938 490.828125 483.460938 Z M 437.515625 458.007812 L 475.691406 481.855469 L 474.742188 483.8125 C 473.792969 485.777344 471.777344 487 469.59375 486.933594 L 372.191406 484.054688 L 367.019531 447.9375 L 414.132812 450.589844 C 422.429688 451.054688 430.472656 453.609375 437.515625 458.007812 Z M 267.039062 475.871094 L 302.074219 451.222656 C 309.304688 447.597656 317.382812 445.683594 325.46875 445.683594 C 326.5 445.683594 327.542969 445.714844 328.570312 445.777344 L 359.148438 447.496094 L 360.347656 483.703125 L 268.578125 480.992188 C 265.871094 480.914062 264.824219 477.429688 267.039062 475.871094 Z M 274.625 489.960938 L 298.539062 490.46875 L 298.445312 494.859375 L 274.53125 494.351562 Z M 325.734375 527.015625 L 310.035156 527.015625 L 308.820312 535.625 L 302.523438 535.625 L 306.636719 506.230469 L 328.628906 506.230469 C 334.839844 506.230469 339.960938 508.5 339.960938 515.050781 C 339.960938 523.949219 333.164062 527.015625 325.734375 527.015625 Z M 381.59375 520.925781 C 380.378906 529.660156 372.699219 536.253906 359.730469 536.253906 C 346.761719 536.253906 340.929688 529.660156 342.144531 520.925781 C 343.363281 512.195312 351.042969 505.601562 364.011719 505.601562 C 376.980469 505.601562 382.8125 512.195312 381.59375 520.925781 Z M 414.332031 535.621094 L 383.738281 535.621094 L 387.851562 506.230469 L 394.144531 506.230469 L 390.871094 529.746094 L 415.171875 529.746094 Z M 424.828125 535.621094 L 418.53125 535.621094 L 422.644531 506.230469 L 428.941406 506.230469 Z M 451.394531 530.375 C 456.304688 530.375 460.796875 529.449219 465.242188 528.234375 L 465.875 533.902344 C 463.859375 534.53125 458.402344 536.253906 450.59375 536.253906 C 436.703125 536.253906 430.910156 530.5 430.910156 522.816406 C 430.910156 513.285156 438.046875 505.601562 454.878906 505.601562 C 462.683594 505.601562 467.71875 507.324219 469.480469 507.953125 L 467.257812 513.621094 C 463.230469 512.402344 458.988281 511.480469 454.078125 511.480469 C 441.867188 511.480469 437.417969 516.015625 437.417969 522.0625 C 437.417969 526.972656 441.28125 530.375 451.394531 530.375 Z M 473.511719 506.230469 L 505.367188 506.230469 L 504.570312 512.109375 L 479.011719 512.109375 L 478.214844 517.570312 L 501.253906 517.570312 L 500.457031 523.445312 L 477.417969 523.445312 L 476.535156 529.746094 L 502.933594 529.746094 L 502.09375 535.621094 L 469.398438 535.621094 Z M 401.980469 492.550781 L 401.886719 496.945312 L 377.972656 496.4375 L 378.066406 492.042969 Z M 401.980469 492.550781 " fill-opacity="1" fill-rule="nonzero"/><path fill="#000000" d="M 293.515625 558.386719 C 293.515625 557.515625 293.46875 556.65625 293.394531 555.808594 C 292.089844 541.636719 280.1875 530.542969 265.6875 530.542969 C 251.183594 530.542969 239.277344 541.636719 237.976562 555.808594 C 237.898438 556.65625 237.851562 557.515625 237.851562 558.386719 C 237.851562 573.761719 250.3125 586.230469 265.6875 586.230469 C 281.054688 586.230469 293.515625 573.761719 293.515625 558.386719 Z M 265.6875 576.460938 C 255.722656 576.460938 247.613281 568.351562 247.613281 558.386719 C 247.613281 557.859375 247.640625 557.308594 247.699219 556.703125 C 248.554688 547.355469 256.289062 540.308594 265.6875 540.308594 C 275.082031 540.308594 282.8125 547.355469 283.671875 556.699219 C 283.726562 557.289062 283.75 557.84375 283.75 558.386719 C 283.75 568.351562 275.648438 576.460938 265.6875 576.460938 Z M 265.6875 576.460938 " fill-opacity="1" fill-rule="nonzero"/><path fill="#000000" d="M 265.6875 566.695312 C 270.265625 566.695312 273.988281 562.96875 273.988281 558.386719 C 273.988281 558.144531 273.976562 557.882812 273.949219 557.59375 C 273.554688 553.308594 270.003906 550.074219 265.6875 550.074219 C 261.367188 550.074219 257.8125 553.308594 257.417969 557.609375 C 257.390625 557.90625 257.378906 558.160156 257.378906 558.386719 C 257.378906 562.96875 261.105469 566.695312 265.6875 566.695312 Z M 265.6875 566.695312 " fill-opacity="1" fill-rule="nonzero"/><path fill="#000000" d="M 564.953125 558.386719 C 564.953125 557.515625 564.90625 556.65625 564.828125 555.808594 C 563.527344 541.636719 551.625 530.542969 537.125 530.542969 C 522.621094 530.542969 510.714844 541.636719 509.414062 555.808594 C 509.335938 556.65625 509.289062 557.515625 509.289062 558.386719 C 509.289062 573.761719 521.75 586.230469 537.125 586.230469 C 552.492188 586.230469 564.953125 573.761719 564.953125 558.386719 Z M 537.125 576.460938 C 527.160156 576.460938 519.050781 568.351562 519.050781 558.386719 C 519.050781 557.859375 519.078125 557.308594 519.132812 556.703125 C 519.992188 547.355469 527.726562 540.308594 537.125 540.308594 C 546.519531 540.308594 554.25 547.355469 555.109375 556.699219 C 555.160156 557.289062 555.1875 557.84375 555.1875 558.386719 C 555.1875 568.351562 547.085938 576.460938 537.125 576.460938 Z M 537.125 576.460938 " fill-opacity="1" fill-rule="nonzero"/><path fill="#000000" d="M 537.125 566.695312 C 541.699219 566.695312 545.425781 562.96875 545.425781 558.386719 C 545.425781 558.144531 545.414062 557.882812 545.386719 557.59375 C 544.992188 553.308594 541.441406 550.074219 537.125 550.074219 C 532.804688 550.074219 529.25 553.308594 528.855469 557.609375 C 528.828125 557.90625 528.8125 558.160156 528.8125 558.386719 C 528.816406 562.96875 532.542969 566.695312 537.125 566.695312 Z M 537.125 566.695312 " fill-opacity="1" fill-rule="nonzero"/><path fill="#000000" d="M 65.90625 327.046875 L 125.613281 327.046875 C 137.390625 316.6875 143.46875 300.5 140.136719 284.015625 C 138.882812 277.820312 136.417969 272.179688 133.042969 267.285156 L 152.449219 260.242188 L 126.863281 248.867188 L 43.734375 279.039062 L 50.355469 297.296875 L 50.679688 297.179688 C 50.828125 298.773438 51.058594 300.375 51.382812 301.980469 C 51.53125 302.703125 51.695312 303.414062 51.871094 304.121094 C 54.195312 313.316406 59.21875 321.183594 65.90625 327.046875 Z M 65.90625 327.046875 " fill-opacity="1" fill-rule="nonzero"/><path fill="#000000" d="M 125.402344 243.234375 L 130.78125 216.21875 L 37.304688 261.304688 L 41.757812 273.589844 Z M 125.402344 243.234375 " fill-opacity="1" fill-rule="nonzero"/><path fill="#000000" d="M 222.308594 358.019531 L 204.28125 413.535156 C 206.769531 414.523438 209.035156 415.9375 210.976562 417.699219 L 231.011719 356.007812 C 232.09375 352.683594 230.257812 349.96875 226.9375 349.96875 L 161.238281 349.96875 C 162.636719 352.390625 164.003906 355.074219 165.328125 358.019531 Z M 222.308594 358.019531 " fill-opacity="1" fill-rule="nonzero"/><path fill="#000000" d="M 173.300781 415.085938 C 171.664062 402.824219 169.640625 391.898438 167.261719 382.496094 C 167.261719 382.496094 167.261719 382.492188 167.261719 382.492188 C 155.855469 337.402344 136.679688 332.511719 127.339844 333.085938 L 50.6875 333.085938 C 46.234375 332.921875 38.910156 333.847656 31.050781 339.816406 C 13.9375 352.816406 4.203125 382.179688 1.296875 429.578125 C 0.839844 437.082031 3.632812 444.113281 9.164062 449.382812 C 15.257812 455.1875 24.710938 458.339844 34.867188 459.9375 L 34.867188 479.636719 L 45.957031 479.636719 L 45.957031 474.746094 L 53.042969 474.746094 L 53.042969 479.636719 L 61.75 479.636719 L 61.75 474.746094 L 68.835938 474.746094 L 68.835938 479.636719 L 143.710938 479.636719 L 143.710938 438.300781 L 151.882812 442.039062 C 165.710938 448.363281 190.476562 449.9375 195.300781 450.1875 C 195.585938 450.203125 195.871094 450.207031 196.152344 450.207031 C 204.65625 450.207031 211.757812 443.539062 212.210938 434.945312 C 212.675781 426.066406 205.855469 418.488281 196.980469 418.019531 C 190.425781 417.675781 180.703125 416.625 173.300781 415.085938 Z M 173.300781 415.085938 " fill-opacity="1" fill-rule="nonzero"/><g clip-path="url(#e8de651916)"><path fill="#000000" d="M 143.710938 683.609375 L 143.710938 488.492188 L 68.835938 488.492188 L 68.835938 503.898438 L 61.75 503.898438 L 61.75 488.492188 L 53.042969 488.492188 L 53.042969 503.898438 L 45.957031 503.898438 L 45.957031 488.492188 L 34.867188 488.492188 L 34.867188 683.609375 C 34.867188 697.359375 46.007812 708.496094 59.746094 708.496094 C 73.484375 708.496094 84.625 697.359375 84.625 683.609375 L 84.625 527.605469 L 93.953125 527.605469 L 93.953125 683.609375 C 93.953125 697.359375 105.09375 708.496094 118.832031 708.496094 C 132.570312 708.496094 143.710938 697.359375 143.710938 683.609375 Z M 143.710938 683.609375 " fill-opacity="1" fill-rule="nonzero"/></g><g clip-path="url(#22124a7008)"><path fill="#000000" d="M 502.867188 106.839844 C 514.269531 106.839844 531.730469 106.039062 531.730469 105.050781 C 531.730469 104.5 527.875 103.992188 516.472656 103.992188 C 506.796875 103.992188 494.828125 104.042969 491.417969 104.664062 L 491.339844 103.710938 C 491.25 102.597656 490.578125 101.757812 489.78125 101.757812 C 488.980469 101.757812 488.308594 102.597656 488.21875 103.710938 L 488.132812 104.761719 C 486.804688 104.296875 483.726562 103.992188 476.695312 103.992188 C 465.292969 103.992188 447.832031 104.792969 447.832031 105.78125 C 447.832031 106.328125 451.6875 106.839844 463.089844 106.839844 C 472.652344 106.839844 484.449219 106.785156 488.019531 106.1875 L 487.59375 111.425781 L 481.070312 111.425781 C 481.070312 112.730469 481.171875 113.992188 481.347656 115.203125 L 450.40625 115.203125 C 449.574219 113.40625 447.769531 112.15625 445.660156 112.15625 L 421.003906 112.15625 C 418.894531 112.15625 417.089844 113.40625 416.257812 115.203125 L 385.316406 115.203125 C 385.492188 113.992188 385.59375 112.730469 385.59375 111.425781 L 379.070312 111.425781 L 378.636719 106.101562 C 380.023438 106.546875 383.113281 106.839844 389.96875 106.839844 C 401.371094 106.839844 418.832031 106.039062 418.832031 105.050781 C 418.832031 104.5 414.976562 103.992188 403.574219 103.992188 C 393.898438 103.992188 381.929688 104.042969 378.519531 104.664062 L 378.445312 103.710938 C 378.351562 102.597656 377.679688 101.757812 376.882812 101.757812 C 376.082031 101.757812 375.414062 102.597656 375.320312 103.710938 L 375.238281 104.761719 C 373.90625 104.296875 370.828125 103.992188 363.796875 103.992188 C 352.394531 103.992188 334.933594 104.792969 334.933594 105.78125 C 334.933594 106.328125 338.789062 106.839844 350.191406 106.839844 C 359.753906 106.839844 371.550781 106.785156 375.121094 106.1875 L 374.695312 111.425781 L 368.171875 111.425781 C 368.171875 119.898438 372.070312 126.765625 376.882812 126.765625 C 379.132812 126.765625 381.179688 125.246094 382.726562 122.777344 L 422.128906 132.175781 L 415.484375 135.394531 C 410.800781 137.664062 407.230469 141.820312 405.691406 146.792969 L 400.3125 164.195312 C 400.046875 165.054688 399.265625 165.632812 398.367188 165.632812 L 391.761719 165.632812 L 391.761719 170.714844 L 398.367188 170.714844 C 401.503906 170.714844 404.238281 168.699219 405.164062 165.699219 L 410.546875 148.296875 C 411.667969 144.664062 414.277344 141.628906 417.699219 139.96875 L 427.304688 135.316406 L 427.304688 135.839844 C 427.304688 137.800781 428.890625 139.386719 430.847656 139.386719 L 432.3125 139.386719 L 432.3125 141.125 L 425.699219 141.125 C 423.816406 141.125 422.292969 142.652344 422.292969 144.53125 L 422.292969 151.425781 C 422.292969 153.308594 423.816406 154.832031 425.699219 154.832031 L 432.3125 154.832031 L 432.3125 156.996094 L 434.921875 156.996094 L 434.921875 154.832031 L 441.539062 154.832031 C 443.417969 154.832031 444.945312 153.308594 444.945312 151.425781 L 444.945312 144.53125 C 444.945312 142.652344 443.417969 141.125 441.539062 141.125 L 434.921875 141.125 L 434.921875 139.386719 L 435.816406 139.386719 C 437.773438 139.386719 439.359375 137.800781 439.359375 135.839844 L 439.359375 135.316406 L 448.964844 139.96875 C 452.386719 141.628906 454.992188 144.664062 456.117188 148.296875 L 461.496094 165.699219 C 462.425781 168.699219 465.160156 170.714844 468.296875 170.714844 L 474.902344 170.714844 L 474.902344 165.632812 L 468.296875 165.632812 C 467.398438 165.632812 466.617188 165.054688 466.351562 164.195312 L 460.972656 146.792969 C 459.433594 141.820312 455.863281 137.664062 451.179688 135.394531 L 444.535156 132.175781 L 483.9375 122.777344 C 485.484375 125.246094 487.527344 126.765625 489.78125 126.765625 C 494.589844 126.765625 498.492188 119.898438 498.492188 111.425781 L 491.96875 111.425781 L 491.535156 106.101562 C 492.921875 106.546875 496.011719 106.839844 502.867188 106.839844 Z M 437.6875 147.980469 C 437.6875 150.230469 435.867188 152.050781 433.617188 152.050781 C 431.371094 152.050781 429.546875 150.230469 429.546875 147.980469 C 429.546875 145.730469 431.371094 143.90625 433.617188 143.90625 C 435.867188 143.90625 437.6875 145.730469 437.6875 147.980469 Z M 437.6875 147.980469 " fill-opacity="1" fill-rule="nonzero"/></g><path fill="#000000" d="M 431.441406 147.980469 C 431.441406 149.179688 432.417969 150.15625 433.617188 150.15625 C 434.820312 150.15625 435.792969 149.179688 435.792969 147.980469 C 435.792969 146.777344 434.820312 145.804688 433.617188 145.804688 C 432.417969 145.804688 431.441406 146.777344 431.441406 147.980469 Z M 431.441406 147.980469 " fill-opacity="1" fill-rule="nonzero"/><path fill="#000000" d="M 290.515625 139.519531 L 364.425781 139.519531 L 364.425781 141.113281 L 290.515625 141.113281 Z M 290.515625 139.519531 " fill-opacity="1" fill-rule="nonzero"/><path fill="#000000" d="M 275.121094 149.09375 L 349.027344 149.09375 L 349.027344 150.6875 L 275.121094 150.6875 Z M 275.121094 149.09375 " fill-opacity="1" fill-rule="nonzero"/><path fill="#000000" d="M 229.117188 144.308594 L 335.167969 144.308594 L 335.167969 145.902344 L 229.117188 145.902344 Z M 229.117188 144.308594 " fill-opacity="1" fill-rule="nonzero"/></svg>